<mxfile host="65bd71144e">
    <diagram id="zEaie7meS5maOumZ_bkA" name="Page-1">
        <mxGraphModel dx="-844" dy="312" grid="1" gridSize="10" guides="1" tooltips="1" connect="1" arrows="1" fold="1" page="0" pageScale="1" pageWidth="850" pageHeight="1100" math="0" shadow="0">
            <root>
                <mxCell id="0"/>
                <mxCell id="1" parent="0"/>
                <mxCell id="154" value="&lt;font style=&quot;font-size: 14px;&quot;&gt;users&lt;/font&gt;" style="ellipse;whiteSpace=wrap;html=1;" parent="1" vertex="1">
                    <mxGeometry x="1680" y="740" width="100" height="60" as="geometry"/>
                </mxCell>
                <mxCell id="155" value="&lt;font style=&quot;font-size: 14px;&quot;&gt;roles&lt;/font&gt;" style="ellipse;whiteSpace=wrap;html=1;" parent="1" vertex="1">
                    <mxGeometry x="1880" y="740" width="100" height="60" as="geometry"/>
                </mxCell>
                <mxCell id="156" value="&lt;span style=&quot;font-size: 14px;&quot;&gt;permissions&lt;/span&gt;" style="ellipse;whiteSpace=wrap;html=1;" parent="1" vertex="1">
                    <mxGeometry x="2070" y="740" width="100" height="60" as="geometry"/>
                </mxCell>
            </root>
        </mxGraphModel>
    </diagram>
</mxfile>